<svg width="626" height="625" viewBox="0 0 626 625" fill="none" xmlns="http://www.w3.org/2000/svg">
<g clip-path="url(#clip0_2_1862)">
<path opacity="0.07" d="M568.081 263.448C568.081 266.836 568.006 270.225 567.781 273.387C600.135 298.01 625.04 350.795 625.04 397.253C625.04 447.855 595.47 471.724 558.977 450.641C558.902 450.565 558.826 450.565 558.751 450.49L329.488 318.191C329.412 318.115 329.337 318.115 329.186 318.04C288.179 294.321 254.922 229.037 254.922 172.186C254.922 118.949 284.116 91.9177 321.512 108.257C326.101 71.7376 350.555 56.0002 380.05 73.0931C394.196 81.3006 407.213 95.6826 417.371 113.002C432.118 91.0894 457.25 85.5173 485.69 101.932C531.212 128.137 568.081 200.498 568.081 263.448Z" fill="url(#paint0_linear_2_1862)"/>
<path opacity="0.4" d="M530.46 299.591C530.46 302.979 530.385 306.369 530.16 309.53C562.514 334.154 587.419 386.938 587.419 433.398C587.419 483.998 557.849 507.868 521.356 486.784C521.281 486.709 521.205 486.709 521.13 486.633L291.867 354.334C291.792 354.259 291.716 354.259 291.565 354.183C250.558 330.464 217.301 265.18 217.301 208.329C217.301 155.094 246.496 128.061 283.891 144.401C288.48 107.881 312.934 92.1437 342.429 109.237C356.575 117.445 369.592 131.826 379.75 149.145C394.497 127.233 419.629 121.661 448.07 138.076C493.592 164.28 530.46 236.642 530.46 299.591Z" fill="url(#paint1_linear_2_1862)"/>
<path opacity="0.2" d="M167.49 364.047L132.578 343.867V332.045L167.49 352.226C170.35 353.882 174.488 357.195 178.024 362.316C181.862 367.812 184.57 374.74 184.57 382.269C184.57 390.553 182.464 395.296 178.401 396.651C174.638 397.932 170.199 395.747 167.415 394.167L153.043 385.884L152.968 385.808C151.764 385.055 149.808 384.378 148.228 384.83C146.949 385.206 145.519 386.486 145.519 391.079C145.519 395.673 146.949 398.534 148.153 400.19C149.658 402.298 151.614 403.804 152.818 404.408L152.968 404.482L196.835 429.858V441.68L153.194 416.455C150.184 414.874 145.895 411.561 142.134 406.29C138.07 400.567 135.211 393.263 135.286 385.131C135.286 377.074 138.07 372.932 142.134 371.803C145.895 370.749 150.184 372.255 153.194 374.137L167.415 382.345C169.446 383.549 171.027 384.077 172.005 383.7C172.757 383.474 174.262 382.345 174.262 376.321C174.262 372.481 172.983 369.92 171.855 368.189C170.5 366.231 168.619 364.725 167.49 364.047Z" fill="white"/>
<path d="M140.103 340.93C140.103 350.644 134.384 355.237 127.386 351.246C120.388 347.181 114.67 336.036 114.67 326.247C114.67 316.534 120.388 311.94 127.386 315.932C134.384 319.997 140.103 331.217 140.103 340.93Z" fill="url(#paint2_linear_2_1862)"/>
<path d="M214.593 445.596C214.593 455.309 208.874 459.902 201.876 455.912C194.878 451.845 189.16 440.702 189.16 430.912C189.16 421.198 194.878 416.606 201.876 420.596C208.874 424.663 214.593 435.882 214.593 445.596Z" fill="url(#paint3_linear_2_1862)"/>
<path opacity="0.07" d="M274.711 195.453L500.363 325.795V445.294L274.635 314.952L274.711 195.453Z" fill="url(#paint4_linear_2_1862)"/>
<path opacity="0.3" d="M244.538 210.513L470.19 340.855V460.354L244.538 330.012V210.513Z" fill="url(#paint5_linear_2_1862)"/>
<path d="M264.778 281.671C264.778 291.309 270.496 302.378 277.494 306.444C284.491 310.51 290.21 305.992 290.21 296.354C290.21 286.716 284.491 275.647 277.494 271.581C270.496 267.514 264.778 272.032 264.778 281.671Z" fill="url(#paint6_linear_2_1862)"/>
<path opacity="0.15" d="M296.607 300.269C296.607 304.712 299.24 309.908 302.552 311.79C305.787 313.673 308.42 311.565 308.42 307.122C308.42 302.679 305.787 297.483 302.476 295.601C299.24 293.718 296.607 295.826 296.607 300.269Z" fill="white"/>
<path opacity="0.15" d="M314.74 310.736C314.74 315.178 317.374 320.373 320.684 322.256C323.919 324.138 326.554 322.03 326.554 317.587C326.554 313.145 323.919 307.95 320.609 306.067C317.374 304.185 314.74 306.293 314.74 310.736Z" fill="white"/>
<path opacity="0.15" d="M413.232 331.066V399.061L404.353 393.941V325.946L413.232 331.066Z" fill="white"/>
<path opacity="0.15" d="M432.644 342.361V410.355L423.766 405.235V337.24L432.644 342.361Z" fill="white"/>
<path opacity="0.15" d="M452.132 353.656V421.651L443.253 416.53V348.536L452.132 353.656Z" fill="white"/>
<path opacity="0.07" d="M274.635 358.775L500.288 489.118V608.617L274.635 478.275V358.775Z" fill="url(#paint7_linear_2_1862)"/>
<path opacity="0.3" d="M244.538 374.589L470.19 504.931V624.43L244.538 494.088V374.589Z" fill="url(#paint8_linear_2_1862)"/>
<path d="M264.778 445.746C264.778 455.384 270.496 466.453 277.494 470.519C284.491 474.586 290.21 470.067 290.21 460.429C290.21 450.791 284.491 439.722 277.494 435.657C270.496 431.59 264.778 436.108 264.778 445.746Z" fill="url(#paint9_linear_2_1862)"/>
<path opacity="0.15" d="M296.607 464.421C296.607 468.863 299.24 474.058 302.552 475.941C305.787 477.823 308.42 475.715 308.42 471.272C308.42 466.829 305.787 461.635 302.476 459.752C299.24 457.87 296.607 459.902 296.607 464.421Z" fill="white"/>
<path opacity="0.15" d="M314.664 474.886C314.664 479.329 317.299 484.525 320.609 486.407C323.845 488.29 326.478 486.182 326.478 481.739C326.478 477.296 323.845 472.101 320.534 470.218C317.299 468.26 314.664 470.368 314.664 474.886Z" fill="white"/>
<path opacity="0.15" d="M413.232 497.476V565.471L404.353 560.35V492.356L413.232 497.476Z" fill="white"/>
<path opacity="0.15" d="M432.644 508.772V576.766L423.766 571.646V503.651L432.644 508.772Z" fill="white"/>
<path opacity="0.15" d="M452.132 520.066V588.06L443.253 582.94V514.946L452.132 520.066Z" fill="white"/>
<path opacity="0.3" d="M44.1675 33.4861L184.796 114.733V375.492L44.1675 294.17V33.4861Z" fill="url(#paint10_linear_2_1862)"/>
<path d="M130.997 127.91C130.997 140.937 123.473 147.112 114.218 141.69C104.963 136.268 97.439 121.359 97.439 108.333C97.439 95.3062 104.963 89.1316 114.218 94.5531C123.473 99.9746 130.997 114.884 130.997 127.91Z" fill="url(#paint11_linear_2_1862)"/>
<path d="M114.218 152.156C99.2445 143.423 86.9047 151.629 84.7227 170.454C84.3465 173.692 86.8295 178.06 89.8392 179.791L138.672 208.33C141.681 210.062 144.165 208.706 143.788 204.941C141.53 183.481 129.116 160.891 114.218 152.156Z" fill="url(#paint12_linear_2_1862)"/>
<path opacity="0.15" d="M72.3836 202.607L156.204 251.024V261.264L72.3836 212.848V202.607Z" fill="white"/>
<path opacity="0.15" d="M80.8864 227.832L147.325 266.159V276.399L80.8864 238.072V227.832Z" fill="white"/>
<path d="M97.8153 270.903L0 214.354V243.495L97.8153 300.044V270.903Z" fill="url(#paint13_linear_2_1862)"/>
<path opacity="0.2" d="M215.119 0.429932L236.036 41.543C238.895 47.1904 238.444 52.8378 234.983 54.1932C231.522 55.5486 226.406 52.0095 223.546 46.3622L223.32 45.835V91.466C223.32 96.6617 219.709 98.77 215.195 96.2098C210.68 93.5743 207.068 87.3245 207.068 82.129V36.498L206.842 36.7239C203.984 39.0581 198.792 36.6486 195.406 31.3023C191.944 25.9562 191.493 19.7817 194.352 17.4475L215.119 0.429932Z" fill="url(#paint14_linear_2_1862)"/>
<path opacity="0.2" d="M215.119 607.487L194.202 566.374C191.342 560.727 191.794 555.08 195.255 553.725C198.716 552.369 203.833 555.908 206.692 561.556L206.917 562.082V516.451C206.917 511.256 210.529 509.147 215.044 511.708C219.559 514.343 223.17 520.593 223.17 525.788V571.419L223.396 571.193C226.255 568.86 231.447 571.269 234.833 576.615C238.294 581.962 238.746 588.136 235.887 590.47L215.119 607.487Z" fill="url(#paint15_linear_2_1862)"/>
</g>
<defs>
<linearGradient id="paint0_linear_2_1862" x1="611.58" y1="119.654" x2="378.594" y2="340.481" gradientUnits="userSpaceOnUse">
<stop stop-color="white"/>
<stop offset="1" stop-color="white" stop-opacity="0"/>
</linearGradient>
<linearGradient id="paint1_linear_2_1862" x1="573.951" y1="155.798" x2="340.966" y2="376.625" gradientUnits="userSpaceOnUse">
<stop stop-color="white"/>
<stop offset="1" stop-color="white" stop-opacity="0"/>
</linearGradient>
<linearGradient id="paint2_linear_2_1862" x1="140.103" y1="333.819" x2="114.67" y2="333.819" gradientUnits="userSpaceOnUse">
<stop stop-color="#818CF8"/>
<stop offset="1" stop-color="#818CF8"/>
</linearGradient>
<linearGradient id="paint3_linear_2_1862" x1="214.593" y1="438.484" x2="189.16" y2="438.484" gradientUnits="userSpaceOnUse">
<stop stop-color="#818CF8"/>
<stop offset="1" stop-color="#818CF8"/>
</linearGradient>
<linearGradient id="paint4_linear_2_1862" x1="382.886" y1="205.009" x2="391.306" y2="416.386" gradientUnits="userSpaceOnUse">
<stop stop-color="white"/>
<stop offset="1" stop-color="white" stop-opacity="0"/>
</linearGradient>
<linearGradient id="paint5_linear_2_1862" x1="352.788" y1="220.069" x2="361.208" y2="431.446" gradientUnits="userSpaceOnUse">
<stop stop-color="white"/>
<stop offset="1" stop-color="white" stop-opacity="0"/>
</linearGradient>
<linearGradient id="paint6_linear_2_1862" x1="290.21" y1="289.24" x2="264.778" y2="289.24" gradientUnits="userSpaceOnUse">
<stop stop-color="#818CF8"/>
<stop offset="1" stop-color="#818CF8"/>
</linearGradient>
<linearGradient id="paint7_linear_2_1862" x1="382.87" y1="368.357" x2="391.29" y2="579.734" gradientUnits="userSpaceOnUse">
<stop stop-color="white"/>
<stop offset="1" stop-color="white" stop-opacity="0"/>
</linearGradient>
<linearGradient id="paint8_linear_2_1862" x1="352.772" y1="384.17" x2="361.192" y2="595.546" gradientUnits="userSpaceOnUse">
<stop stop-color="white"/>
<stop offset="1" stop-color="white" stop-opacity="0"/>
</linearGradient>
<linearGradient id="paint9_linear_2_1862" x1="290.21" y1="453.316" x2="264.778" y2="453.316" gradientUnits="userSpaceOnUse">
<stop stop-color="#818CF8"/>
<stop offset="1" stop-color="#818CF8"/>
</linearGradient>
<linearGradient id="paint10_linear_2_1862" x1="199.867" y1="56.4035" x2="74.8924" y2="272.761" gradientUnits="userSpaceOnUse">
<stop stop-color="white"/>
<stop offset="1" stop-color="white" stop-opacity="0"/>
</linearGradient>
<linearGradient id="paint11_linear_2_1862" x1="130.997" y1="118.429" x2="97.439" y2="118.429" gradientUnits="userSpaceOnUse">
<stop stop-color="#818CF8"/>
<stop offset="1" stop-color="#818CF8"/>
</linearGradient>
<linearGradient id="paint12_linear_2_1862" x1="143.826" y1="179.232" x2="84.6848" y2="179.232" gradientUnits="userSpaceOnUse">
<stop stop-color="#818CF8"/>
<stop offset="1" stop-color="#818CF8"/>
</linearGradient>
<linearGradient id="paint13_linear_2_1862" x1="97.8153" y1="257.714" x2="0" y2="257.714" gradientUnits="userSpaceOnUse">
<stop stop-color="#818CF8"/>
<stop offset="1" stop-color="#818CF8"/>
</linearGradient>
<linearGradient id="paint14_linear_2_1862" x1="230.004" y1="41.9014" x2="191.827" y2="63.1672" gradientUnits="userSpaceOnUse">
<stop stop-color="white"/>
<stop offset="1" stop-color="white" stop-opacity="0"/>
</linearGradient>
<linearGradient id="paint15_linear_2_1862" x1="200.194" y1="566.044" x2="238.371" y2="544.778" gradientUnits="userSpaceOnUse">
<stop stop-color="white"/>
<stop offset="1" stop-color="white" stop-opacity="0"/>
</linearGradient>
<clipPath id="clip0_2_1862">
<rect width="625.04" height="624" fill="white" transform="translate(0 0.429932)"/>
</clipPath>
</defs>
</svg>
