<svg width="42" height="39" viewBox="0 0 42 39" fill="none" xmlns="http://www.w3.org/2000/svg">
<path d="M17.7305 34.9769C17.9737 34.3508 18.0897 33.6826 18.0716 33.0112C18.1087 31.1505 18.606 29.3279 19.5191 27.7062C20.43 26.0872 21.7289 24.72 23.2991 23.7274C23.8805 23.4156 24.3926 22.989 24.8044 22.4735C25.2162 21.9581 25.5191 21.3644 25.6948 20.7285C25.8706 20.0926 25.9155 19.4276 25.8268 18.7739C25.7382 18.1201 25.5178 17.4911 25.1791 16.9249C24.7266 16.1687 24.0753 15.5487 23.2991 15.1362C22.8541 14.8274 22.4266 14.4949 22.0191 14.1387L20.9978 13.1387C19.1265 11.1714 18.0771 8.56379 18.0641 5.84868C18.0834 5.17714 17.9681 4.50853 17.7248 3.88229C17.4816 3.25605 17.1154 2.68486 16.6478 2.20243C16.1824 1.72054 15.6246 1.33737 15.0078 1.07579C14.391 0.814204 13.7278 0.679574 13.0578 0.679932C12.3882 0.680877 11.7256 0.816104 11.1092 1.07761C10.4928 1.33912 9.93509 1.72161 9.46909 2.20243C9.00237 2.68571 8.63672 3.25722 8.39354 3.88352C8.15036 4.50982 8.03453 5.17833 8.05284 5.84993C8.06376 6.72173 8.30388 7.57531 8.74909 8.32493C9.19276 9.07329 9.8262 9.69121 10.5853 10.1162C13.6591 12.0612 15.7978 15.7799 15.7978 19.4374C15.7902 22.1289 14.7609 24.7172 12.9178 26.6787L10.5928 28.7437C9.83409 29.1674 9.20034 29.7849 8.75534 30.5349C8.30909 31.2837 8.07034 32.1387 8.05909 33.0112C8.03997 33.6827 8.15542 34.3512 8.39865 34.9775C8.64188 35.6037 9.00796 36.1749 9.47534 36.6574C9.94088 37.1392 10.4987 37.5223 11.1155 37.7839C11.7322 38.0455 12.3954 38.1801 13.0653 38.1799C13.7351 38.1792 14.398 38.044 15.0146 37.7825C15.6313 37.521 16.1892 37.1384 16.6553 36.6574C17.1218 36.1743 17.4874 35.6029 17.7305 34.9769Z" fill="#6366F1"/>
<path d="M24.5203 8.62993C23.9691 7.80243 23.6753 6.82868 23.6753 5.83368C23.6762 4.50084 24.2042 3.22244 25.1441 2.27743C25.9613 1.45523 27.0392 0.943061 28.1929 0.828793C29.3465 0.714526 30.5039 1.00528 31.4666 1.65118C32.2912 2.20481 32.9332 2.99038 33.3116 3.90868C33.69 4.82803 33.7888 5.83858 33.5956 6.81381C33.4023 7.78903 32.9257 8.68558 32.2253 9.39118C31.5271 10.0948 30.635 10.5745 29.663 10.7688C28.6909 10.9632 27.683 10.8635 26.7678 10.4824C25.8518 10.101 25.0696 9.45627 24.5203 8.62993Z" fill="#6366F1"/>
<path d="M25.9016 28.8274C26.7253 28.2749 27.6941 27.9799 28.6841 27.9799V27.9774C29.3422 27.9782 29.9937 28.1089 30.6011 28.362C31.2086 28.6152 31.7601 28.9857 32.2241 29.4524C33.044 30.2773 33.554 31.3599 33.6679 32.5174C33.7818 33.6748 33.4925 34.8361 32.8491 35.8049C32.2998 36.6324 31.5171 37.278 30.6003 37.6599C29.6852 38.041 28.6773 38.1407 27.7052 37.9463C26.7332 37.752 25.8411 37.2723 25.1428 36.5687C24.4422 35.863 23.9654 34.9662 23.7722 33.9907C23.579 33.0152 23.6779 32.0044 24.0566 31.0849C24.435 30.1667 25.0771 29.3811 25.9016 28.8274Z" fill="#6366F1"/>
<path d="M40.6553 16.6274C41.2051 17.4546 41.4989 18.4267 41.4991 19.4214C41.4982 20.7545 40.9703 22.0333 40.0303 22.9787C39.5663 23.4452 39.0147 23.8157 38.4073 24.0688C37.7998 24.3219 37.1484 24.4527 36.4903 24.4537C35.4993 24.4537 34.5306 24.1587 33.7078 23.6062C32.8833 23.0526 32.2412 22.267 31.8628 21.3487C31.4841 20.4292 31.3852 19.4184 31.5784 18.4429C31.7717 17.4674 32.2485 16.5706 32.9491 15.8649C33.6474 15.161 34.5397 14.6812 35.5121 14.4869C36.4844 14.2925 37.4925 14.3924 38.4078 14.7737C39.324 15.1555 40.1062 15.8006 40.6553 16.6274Z" fill="#6366F1"/>
<path d="M2.47533 15.2387C3.29908 14.6862 4.26658 14.3912 5.25783 14.3912C5.91576 14.3926 6.56696 14.5237 7.17418 14.777C7.78139 15.0303 8.33271 15.4008 8.79658 15.8674C9.61609 16.692 10.1258 17.7742 10.2397 18.9312C10.3536 20.0881 10.0646 21.2489 9.42158 22.2174C8.87241 23.0442 8.09021 23.6893 7.17408 24.0712C6.25863 24.4504 5.25116 24.5491 4.27951 24.3548C3.30786 24.1605 2.41582 23.682 1.71658 22.9799C1.01621 22.2743 0.539566 21.3778 0.346344 20.4026C0.153123 19.4273 0.251907 18.4168 0.630328 17.4974C1.00857 16.5787 1.6506 15.7927 2.47533 15.2387Z" fill="#6366F1"/>
</svg>
